<svg width="38" height="38" viewBox="0 0 38 38" fill="none" xmlns="http://www.w3.org/2000/svg">
<circle cx="19" cy="19" r="19" fill="#191F2D"/>
<path d="M19.7709 11.5C20.6147 11.5022 21.0429 11.5068 21.4127 11.5173L21.5582 11.5225C21.7262 11.5285 21.8919 11.536 22.0922 11.545C22.8902 11.5825 23.4347 11.7085 23.9124 11.8938C24.4074 12.0843 24.8244 12.3422 25.2414 12.7585C25.623 13.1333 25.9181 13.5869 26.1062 14.0875C26.2914 14.5652 26.4174 15.1097 26.4549 15.9085C26.4639 16.108 26.4714 16.2738 26.4774 16.4425L26.4819 16.588C26.4932 16.957 26.4977 17.3853 26.4992 18.229L26.4999 18.7885V19.771C26.5018 20.3181 26.496 20.8651 26.4827 21.412L26.4782 21.5575C26.4722 21.7262 26.4647 21.892 26.4557 22.0915C26.4182 22.8903 26.2907 23.434 26.1062 23.9125C25.9181 24.4131 25.623 24.8667 25.2414 25.2415C24.8666 25.623 24.4131 25.9181 23.9124 26.1063C23.4347 26.2915 22.8902 26.4175 22.0922 26.455L21.5582 26.4775L21.4127 26.482C21.0429 26.4925 20.6147 26.4978 19.7709 26.4993L19.2114 26.5H18.2297C17.6824 26.5019 17.1351 26.4962 16.5879 26.4827L16.4424 26.4783C16.2644 26.4715 16.0864 26.4638 15.9084 26.455C15.1104 26.4175 14.5659 26.2915 14.0874 26.1063C13.5871 25.918 13.1338 25.6229 12.7592 25.2415C12.3774 24.8668 12.082 24.4132 11.8937 23.9125C11.7084 23.4347 11.5824 22.8903 11.5449 22.0915L11.5224 21.5575L11.5187 21.412C11.5049 20.8651 11.4986 20.3181 11.4999 19.771V18.229C11.4979 17.682 11.5034 17.1349 11.5164 16.588L11.5217 16.4425C11.5277 16.2738 11.5352 16.108 11.5442 15.9085C11.5817 15.1097 11.7077 14.566 11.8929 14.0875C12.0817 13.5866 12.3776 13.1331 12.7599 12.7585C13.1343 12.3772 13.5873 12.0821 14.0874 11.8938C14.5659 11.7085 15.1097 11.5825 15.9084 11.545C16.1079 11.536 16.2744 11.5285 16.4424 11.5225L16.5879 11.518C17.1348 11.5047 17.6819 11.4989 18.2289 11.5007L19.7709 11.5ZM18.9999 15.25C18.0054 15.25 17.0515 15.6451 16.3483 16.3483C15.645 17.0516 15.2499 18.0054 15.2499 19C15.2499 19.9946 15.645 20.9484 16.3483 21.6517C17.0515 22.3549 18.0054 22.75 18.9999 22.75C19.9945 22.75 20.9483 22.3549 21.6516 21.6517C22.3548 20.9484 22.7499 19.9946 22.7499 19C22.7499 18.0054 22.3548 17.0516 21.6516 16.3483C20.9483 15.6451 19.9945 15.25 18.9999 15.25ZM18.9999 16.75C19.2954 16.75 19.588 16.8081 19.861 16.9211C20.134 17.0342 20.3821 17.1998 20.591 17.4087C20.8 17.6176 20.9658 17.8657 21.0789 18.1386C21.192 18.4116 21.2503 18.7042 21.2503 18.9996C21.2504 19.2951 21.1922 19.5877 21.0792 19.8607C20.9662 20.1337 20.8005 20.3818 20.5916 20.5907C20.3827 20.7997 20.1347 20.9655 19.8617 21.0786C19.5887 21.1917 19.2962 21.25 19.0007 21.25C18.404 21.25 17.8317 21.0129 17.4097 20.591C16.9877 20.169 16.7507 19.5967 16.7507 19C16.7507 18.4033 16.9877 17.831 17.4097 17.409C17.8317 16.9871 18.404 16.75 19.0007 16.75M22.9382 14.125C22.6895 14.125 22.4511 14.2238 22.2753 14.3996C22.0995 14.5754 22.0007 14.8139 22.0007 15.0625C22.0007 15.3111 22.0995 15.5496 22.2753 15.7254C22.4511 15.9012 22.6895 16 22.9382 16C23.1868 16 23.4253 15.9012 23.6011 15.7254C23.7769 15.5496 23.8757 15.3111 23.8757 15.0625C23.8757 14.8139 23.7769 14.5754 23.6011 14.3996C23.4253 14.2238 23.1868 14.125 22.9382 14.125Z" fill="white"/>
</svg>
